<?xml version="1.0" standalone="no"?><!DOCTYPE svg PUBLIC "-//W3C//DTD SVG 1.1//EN" "http://www.w3.org/Graphics/SVG/1.1/DTD/svg11.dtd"><svg t="1619844734070" class="icon" viewBox="0 0 1024 1024" version="1.1" xmlns="http://www.w3.org/2000/svg" p-id="11994" xmlns:xlink="http://www.w3.org/1999/xlink" width="200" height="200"><defs><style type="text/css"></style></defs><path d="M180.06 838.184c-27.728 0-50.206-22.478-50.206-50.202V569.29c0-27.728 22.478-50.202 50.206-50.202s50.202 22.478 50.202 50.202V787.98c0 27.726-22.476 50.204-50.202 50.204z" fill="#F3C74F" p-id="11995"></path><path d="M180.06 519.086c-24.328 0-44.608 17.308-49.214 40.282 10.876 78.108 46.794 148.218 99.418 202.028v-192.106c-0.002-27.726-22.478-50.204-50.204-50.204z" opacity=".2" p-id="11996"></path><path d="M843.94 838.184c-27.728 0-50.202-22.478-50.202-50.202V569.29c0-27.728 22.478-50.202 50.202-50.202 27.728 0 50.206 22.478 50.206 50.202V787.98c-0.002 27.726-22.478 50.204-50.206 50.204zM619.94 1024c-27.728 0-50.202-22.478-50.202-50.202v-190.11c0-27.728 22.476-50.202 50.202-50.202s50.202 22.476 50.202 50.202v190.11C670.144 1001.524 647.666 1024 619.94 1024z" fill="#F3C74F" p-id="11997"></path><path d="M619.94 733.482c-27.728 0-50.202 22.476-50.202 50.202v105.292a360.524 360.524 0 0 0 100.408-31.566v-73.726c-0.002-27.726-22.48-50.202-50.206-50.202z" opacity=".2" p-id="11998"></path><path d="M404.062 1024c-27.728 0-50.202-22.478-50.202-50.202v-190.11c0-27.728 22.478-50.202 50.202-50.202 27.728 0 50.202 22.476 50.202 50.202v190.11c0 27.726-22.474 50.202-50.202 50.202z" fill="#F3C74F" p-id="11999"></path><path d="M404.062 733.482c-27.728 0-50.202 22.476-50.202 50.202v73.726a360.414 360.414 0 0 0 100.408 31.566v-105.292c-0.004-27.726-22.478-50.202-50.206-50.202z" opacity=".2" p-id="12000"></path><path d="M790.098 170.696m-115.314 0a115.314 115.314 0 1 0 230.628 0 115.314 115.314 0 1 0-230.628 0Z" fill="#0081C6" p-id="12001"></path><path d="M790.098 170.696m-53.834 0a53.834 53.834 0 1 0 107.668 0 53.834 53.834 0 1 0-107.668 0Z" fill="#F3C74F" p-id="12002"></path><path d="M233.902 170.696m-115.314 0a115.314 115.314 0 1 0 230.628 0 115.314 115.314 0 1 0-230.628 0Z" fill="#0081C6" p-id="12003"></path><path d="M233.902 170.696m-53.834 0a53.834 53.834 0 1 0 107.668 0 53.834 53.834 0 1 0-107.668 0Z" fill="#F3C74F" p-id="12004"></path><path d="M302.056 77.72C247.844 126.716 201.86 194.166 169.2 266.16c18.448 12.528 40.714 19.852 64.696 19.852 63.68 0 115.306-51.624 115.306-115.306-0.004-38.174-18.566-72.002-47.146-92.986z" opacity=".2" p-id="12005"></path><path d="M874.298 486.9C874.298 287.402 707.978 0 512 0S149.702 287.402 149.702 486.9 311.908 848.124 512 848.124s362.298-161.726 362.298-361.224z" fill="#40BAB3" p-id="12006"></path><path d="M330.906 442.464h-60.482a16.254 16.254 0 0 1-16.256-16.256 16.254 16.254 0 0 1 16.256-16.256h60.482a16.254 16.254 0 0 1 16.256 16.256 16.254 16.254 0 0 1-16.256 16.256zM753.574 442.464h-60.482a16.254 16.254 0 0 1-16.256-16.256 16.254 16.254 0 0 1 16.256-16.256h60.482a16.254 16.254 0 0 1 16.256 16.256 16.252 16.252 0 0 1-16.256 16.256z" fill="#F0B0B7" p-id="12007"></path><path d="M155.806 553.148C187.016 721.006 334.608 848.124 512 848.124s324.984-127.122 356.196-294.974H155.806z" fill="#FFFFFF" p-id="12008"></path><path d="M219.94 700.636c65.942 89.434 172.192 147.488 292.06 147.488s226.118-58.054 292.06-147.488H219.94z" fill="#0081C6" p-id="12009"></path><path d="M550.418 809.706c-200.09 0-362.298-161.726-362.298-361.224 0-120.104 60.296-272.044 151.038-373.974-111.752 98.65-189.456 276.042-189.456 412.392 0 199.498 162.206 361.224 362.298 361.224 110.012 0 208.558-48.898 275.006-126.074-63.478 54.62-146.162 87.656-236.588 87.656z" opacity=".2" p-id="12010"></path><path d="M300.662 269.884m-99.428 0a99.428 99.428 0 1 0 198.856 0 99.428 99.428 0 1 0-198.856 0Z" fill="#FFFFFF" p-id="12011"></path><path d="M723.338 269.884m-99.428 0a99.428 99.428 0 1 0 198.856 0 99.428 99.428 0 1 0-198.856 0Z" fill="#FFFFFF" p-id="12012"></path><path d="M300.662 269.884m-25.002 0a25.002 25.002 0 1 0 50.004 0 25.002 25.002 0 1 0-50.004 0Z" fill="#394049" p-id="12013"></path><path d="M723.338 269.884m-25.002 0a25.002 25.002 0 1 0 50.004 0 25.002 25.002 0 1 0-50.004 0Z" fill="#394049" p-id="12014"></path><path d="M512 380.624m-54.666 0a54.666 54.666 0 1 0 109.332 0 54.666 54.666 0 1 0-109.332 0Z" fill="#F0B0B7" p-id="12015"></path></svg>